<svg width="150" height="23" viewBox="0 0 150 23" fill="none" xmlns="http://www.w3.org/2000/svg">
<path d="M9.44504 2.08111V22.4119H7.04376V2.08111H0V0H16.4888V1.44077L15.8485 2.08111H9.44504V2.08111ZM19.3703 6.08324H21.6115V18.2497C21.6115 19.6905 22.7321 20.8111 24.1729 20.8111H27.0544C29.4557 20.8111 30.7364 17.9296 30.7364 17.9296V6.08324H32.9776V22.4119H31.5368L31.2166 20.1708H31.0566C31.0566 20.1708 29.7759 22.7321 27.0544 22.7321H24.1729C21.2914 22.7321 19.3703 20.8111 19.3703 18.2497V6.08324V6.08324ZM47.0651 5.76307V7.84418H44.0235C41.6222 7.84418 40.3415 10.5656 40.3415 10.5656V22.4119H38.1003V6.08324H39.5411L39.8613 8.32444H40.0213C40.0213 8.32444 41.302 5.76307 44.0235 5.76307H47.0651V5.76307ZM48.0256 8.00427V6.08324H50.587L51.5475 1.28068H52.8282V6.08324H57.4706V8.00427H52.8282V17.9296C52.8282 19.3703 53.9488 20.4909 55.3895 20.4909H58.4312V22.4119H55.3895C52.508 22.4119 50.587 20.4909 50.587 17.9296V8.00427H48.0256ZM61.6329 17.9296V0H63.8741V17.9296C63.8741 19.3703 64.9947 20.4909 66.4354 20.4909H66.9157V22.4119H66.4354C63.5539 22.4119 61.6329 20.4909 61.6329 17.9296ZM82.2839 22.4119H74.5998C71.5582 22.4119 69.7972 20.4909 69.7972 17.9296V10.2455C69.7972 7.6841 71.7182 5.76307 74.5998 5.76307H78.1217C81.0032 5.76307 82.9242 7.6841 82.9242 10.2455V15.2081H72.0384V17.9296C72.0384 19.3703 73.159 20.4909 74.5998 20.4909H82.2839V22.4119V22.4119ZM72.0384 10.2455V13.2871H80.683V10.2455C80.683 8.80469 79.5624 7.6841 78.1217 7.6841H74.5998C73.159 7.6841 72.0384 8.80469 72.0384 10.2455V10.2455ZM109.498 0H111.9V22.4119H109.498V12.0064H98.4525V22.4119H96.0512V0H98.4525V9.92529H109.498V0V0ZM117.663 6.08324H119.904V18.2497C119.904 19.6905 121.025 20.8111 122.465 20.8111H125.347C127.748 20.8111 129.029 17.9296 129.029 17.9296V6.08324H131.27V22.4119H129.829L129.509 20.1708H129.349C129.349 20.1708 128.068 22.7321 125.347 22.7321H122.465C119.584 22.7321 117.663 20.8111 117.663 18.2497V6.08324V6.08324ZM138.634 0V6.08324H145.197C148.079 6.08324 150 8.00427 150 10.5656V17.9296C150 20.4909 148.079 22.4119 145.197 22.4119H136.393V0H138.634V0ZM145.197 8.00427H138.634V20.4909H145.197C146.638 20.4909 147.759 19.3703 147.759 17.9296V10.5656C147.759 9.12487 146.638 8.00427 145.197 8.00427Z" fill="#222831"/>
</svg>
