<svg width="16" height="16" viewBox="0 0 16 16" fill="none" xmlns="http://www.w3.org/2000/svg">
<rect x="4" y="13" width="1" height="1" fill="#361C05"/>
<rect x="3" y="14" width="1" height="1" fill="#361C05"/>
<rect x="5" y="12" width="1" height="1" fill="#361C05"/>
<rect x="6" y="11" width="1" height="1" fill="#361C05"/>
<rect x="7" y="10" width="1" height="1" fill="#361C05"/>
<rect x="8" y="9" width="1" height="1" fill="#361C05"/>
<rect x="9" y="8" width="1" height="1" fill="#361C05"/>
<rect x="10" y="7" width="1" height="1" fill="#361C05"/>
<rect x="11" y="6" width="1" height="1" fill="#361C05"/>
<rect x="13" y="4" width="1" height="1" fill="#361C05"/>
<rect x="2" y="13" width="1" height="1" fill="#623B12"/>
<rect x="3" y="12" width="1" height="1" fill="#623B12"/>
<rect x="4" y="11" width="1" height="1" fill="#623B12"/>
<rect x="5" y="10" width="1" height="1" fill="#623B12"/>
<rect x="6" y="9" width="1" height="1" fill="#623B12"/>
<rect x="7" y="8" width="1" height="1" fill="#623B12"/>
<rect x="8" y="7" width="1" height="1" fill="#623B12"/>
<rect x="9" y="6" width="1" height="1" fill="#623B12"/>
<rect x="10" y="5" width="1" height="1" fill="#623B12"/>
<rect x="12" y="3" width="1" height="1" fill="#623B12"/>
<path d="M3 13H4V14H3V13Z" fill="#8C5116"/>
<rect x="5" y="11" width="1" height="1" fill="#8C5116"/>
<rect x="4" y="12" width="1" height="1" fill="#855024"/>
<rect x="2" y="14" width="1" height="1" fill="#855024"/>
<path d="M7 9H8V10H7V9Z" fill="#8C5116"/>
<rect x="9" y="7" width="1" height="1" fill="#8C5116"/>
<rect x="12" y="4" width="1" height="1" fill="#8C5116"/>
<rect x="8" y="8" width="1" height="1" fill="#855024"/>
<rect x="10" y="6" width="1" height="1" fill="#855024"/>
<rect x="13" y="3" width="1" height="1" fill="#855024"/>
<rect x="6" y="10" width="1" height="1" fill="#855024"/>
<path d="M12 6H13V7H12V6Z" fill="#2C2C2C"/>
<path d="M13 5H14V6H13V5Z" fill="#2C2C2C"/>
<path d="M10 2H11V3H10V2Z" fill="#2C2C2C"/>
<path d="M11 3H12V4H11V3Z" fill="#2C2C2C"/>
<path d="M8 3H9V4H8V3Z" fill="#2C2C2C"/>
<path d="M7 3H8V4H7V3Z" fill="#2C2C2C"/>
<path d="M6 2H7V3H6V2Z" fill="#2C2C2C"/>
<path d="M7 1H10V2H7V1Z" fill="#2C2C2C"/>
<path d="M12 5H13V6H12V5Z" fill="#DCDCDC"/>
<path d="M11 4H12V5H11V4Z" fill="#BCBCBC"/>
<path d="M10 4H11V5H10V4Z" fill="#BCBCBC"/>
<path d="M9 4H10V5H9V4Z" fill="#BCBCBC"/>
<path d="M9 3H10V4H9V3Z" fill="#BCBCBC"/>
<path d="M9 2H10V3H9V2Z" fill="#BCBCBC"/>
<path d="M8 2H9V3H8V2Z" fill="#BCBCBC"/>
<path d="M7 2H8V3H7V2Z" fill="white"/>
<path d="M10 3H11V4H10V3Z" fill="#DCDCDC"/>
<path d="M11 5H12V6H11V5Z" fill="#DCDCDC"/>
</svg>
