<svg width="16" height="16" viewBox="0 0 16 16" fill="none" xmlns="http://www.w3.org/2000/svg">
<rect y="14.7692" width="1.23077" height="1.23077" fill="#361C05"/>
<rect x="1.23071" y="14.7692" width="1.23077" height="1.23077" fill="#361C05"/>
<rect x="2.46155" y="13.5385" width="1.23077" height="1.23077" fill="#361C05"/>
<rect x="3.69226" y="12.3077" width="1.23077" height="1.23077" fill="#361C05"/>
<rect x="4.9231" y="11.0769" width="1.23077" height="1.23077" fill="#361C05"/>
<rect x="6.15381" y="9.84615" width="1.23077" height="1.23077" fill="#361C05"/>
<rect x="7.38464" y="8.61539" width="1.23077" height="1.23077" fill="#361C05"/>
<rect x="9.84619" y="6.15385" width="1.23077" height="1.23077" fill="#361C05"/>
<rect x="8.61536" y="7.38461" width="1.23077" height="1.23077" fill="#361C05"/>
<rect x="11.0769" y="4.92308" width="1.23077" height="1.23077" fill="#361C05"/>
<rect x="13.5385" y="2.46154" width="1.23077" height="1.23077" fill="#361C05"/>
<rect x="13.5385" y="1.23077" width="1.23077" height="1.23077" fill="#361C05"/>
<rect y="13.5385" width="1.23077" height="1.23077" fill="#623B12"/>
<rect x="1.23071" y="12.3077" width="1.23077" height="1.23077" fill="#623B12"/>
<rect x="2.46155" y="11.0769" width="1.23077" height="1.23077" fill="#623B12"/>
<rect x="3.69226" y="9.84615" width="1.23077" height="1.23077" fill="#623B12"/>
<rect x="4.9231" y="8.61539" width="1.23077" height="1.23077" fill="#623B12"/>
<rect x="6.15381" y="7.38461" width="1.23077" height="1.23077" fill="#623B12"/>
<rect x="7.38464" y="6.15385" width="1.23077" height="1.23077" fill="#623B12"/>
<rect x="8.61536" y="4.92308" width="1.23077" height="1.23077" fill="#623B12"/>
<rect x="9.84619" y="3.69231" width="1.23077" height="1.23077" fill="#623B12"/>
<rect x="12.3077" y="1.23077" width="1.23077" height="1.23077" fill="#623B12"/>
<rect x="1.23071" y="13.5385" width="1.23077" height="1.23077" fill="#855024"/>
<rect x="3.69226" y="11.0769" width="1.23077" height="1.23077" fill="#855024"/>
<rect x="6.15381" y="8.61539" width="1.23077" height="1.23077" fill="#855024"/>
<rect x="8.61536" y="6.15385" width="1.23077" height="1.23077" fill="#855024"/>
<rect x="12.3077" y="2.46154" width="1.23077" height="1.23077" fill="#855024"/>
<rect x="2.46155" y="12.3077" width="1.23077" height="1.23077" fill="#8C5116"/>
<rect x="4.9231" y="9.84615" width="1.23077" height="1.23077" fill="#8C5116"/>
<rect x="7.38464" y="7.38461" width="1.23077" height="1.23077" fill="#8C5116"/>
<rect x="9.84619" y="4.92308" width="1.23077" height="1.23077" fill="#8C5116"/>
<path d="M6.15381 2.46154H9.84612V3.69231H6.15381V2.46154Z" fill="#2C2C2C"/>
<path d="M4.9231 0H11.0769V1.23077H4.9231V0Z" fill="#2C2C2C"/>
<path d="M12.3077 6.15385H13.5385V11.0769H12.3077V6.15385Z" fill="#2C2C2C"/>
<path d="M14.7693 4.92308H16.0001V11.0769H14.7693V4.92308Z" fill="#2C2C2C"/>
<path d="M13.5385 11.0769H14.7692V12.3077H13.5385V11.0769Z" fill="#2C2C2C"/>
<path d="M13.5385 3.69231H14.7692V4.92308H13.5385V3.69231Z" fill="#2C2C2C"/>
<path d="M6.15381 1.23077H4.92304V2.46154H6.15381V1.23077Z" fill="white"/>
<path d="M12.3077 3.69231H11.077V4.92308H12.3077V3.69231Z" fill="#87888A"/>
<path d="M11.0769 2.46154H9.84614V3.69231H11.0769V2.46154Z" fill="#87888A"/>
<path d="M13.5385 4.92308H12.3077V6.15385H13.5385V4.92308Z" fill="#87888A"/>
<path d="M14.7693 6.15385H13.5385V11.0769H14.7693V6.15385Z" fill="white"/>
<path d="M9.84619 1.23077H6.15388V2.46154H9.84619V1.23077Z" fill="#E0E0E0"/>
<path d="M4.9231 2.46154H6.15386V3.69231H4.9231V2.46154Z" fill="#2C2C2C"/>
<path d="M3.69226 1.23077H4.92303V2.46154H3.69226V1.23077Z" fill="#2C2C2C"/>
<path d="M11.0769 1.23077H12.3077V2.46154H11.0769V1.23077Z" fill="#2C2C2C"/>
<path d="M12.3077 3.69231H13.5385V4.92308H12.3077V3.69231Z" fill="#BCBCBC"/>
<path d="M11.0769 2.46154H12.3077V3.69231H11.0769V2.46154Z" fill="#BCBCBC"/>
<path d="M9.84619 1.23077H11.077V2.46154H9.84619V1.23077Z" fill="#BCBCBC"/>
<path d="M13.5385 4.92308H14.7692V6.15385H13.5385V4.92308Z" fill="#BCBCBC"/>
</svg>
