<svg width="16" height="16" viewBox="0 0 16 16" fill="none" xmlns="http://www.w3.org/2000/svg">
<path d="M0 15H3V16H0V15Z" fill="#2C2C2C"/>
<path d="M0 13H2V14H0V13Z" fill="#2C2C2C"/>
<path d="M0 14H1V15H0V14Z" fill="#2C2C2C"/>
<path d="M4 10H5V11H4V10Z" fill="#2C2C2C"/>
<path d="M5 11H6V12H5V11Z" fill="#2C2C2C"/>
<path d="M8 11H9V12H8V11Z" fill="#2C2C2C"/>
<path d="M9 12H10V13H9V12Z" fill="#2C2C2C"/>
<path d="M3 6H4V7H3V6Z" fill="#2C2C2C"/>
<path d="M4 7H5V8H4V7Z" fill="#2C2C2C"/>
<path d="M12 1H13V2H12V1Z" fill="#2C2C2C"/>
<path d="M13 0H16V1H13V0Z" fill="#2C2C2C"/>
<path d="M10 3H11V4H10V3Z" fill="#2C2C2C"/>
<path d="M11 2H12V3H11V2Z" fill="#2C2C2C"/>
<path d="M8 5H9V6H8V5Z" fill="#2C2C2C"/>
<path d="M9 4H10V5H9V4Z" fill="#2C2C2C"/>
<path d="M6 7H7V8H6V7Z" fill="#2C2C2C"/>
<path d="M7 6H8V7H7V6Z" fill="#2C2C2C"/>
<path d="M14 3H15V4H14V3Z" fill="#2C2C2C"/>
<path d="M15 1H16V3H15V1Z" fill="#2C2C2C"/>
<path d="M12 5H13V6H12V5Z" fill="#2C2C2C"/>
<path d="M13 4H14V5H13V4Z" fill="#2C2C2C"/>
<path d="M10 7H11V8H10V7Z" fill="#2C2C2C"/>
<path d="M11 6H12V7H11V6Z" fill="#2C2C2C"/>
<path d="M8 9H9V10H8V9Z" fill="#2C2C2C"/>
<path d="M9 8H10V9H9V8Z" fill="#2C2C2C"/>
<path d="M3 8H4V10H3V8Z" fill="#2C2C2C"/>
<path d="M5 8H6V10H5V8Z" fill="#2C2C2C"/>
<path d="M6 10H8V11H6V10Z" fill="#2C2C2C"/>
<path d="M8 13H10V14H8V13Z" fill="#2C2C2C"/>
<path d="M6 12H8V13H6V12Z" fill="#2C2C2C"/>
<path d="M2 6H3V8H2V6Z" fill="#2C2C2C"/>
<path d="M1 14H2V15H1V14Z" fill="#87888A"/>
<path d="M5 10H6V11H5V10Z" fill="#87888A"/>
<path d="M6 9H7V10H6V9Z" fill="#E0E0E0"/>
<path d="M6 8H7V9H6V8Z" fill="white"/>
<path d="M7 9H8V10H7V9Z" fill="white"/>
<path d="M8 8H9V9H8V8Z" fill="white"/>
<path d="M7 7H8V8H7V7Z" fill="white"/>
<path d="M8 6H9V7H8V6Z" fill="white"/>
<path d="M9 7H10V8H9V7Z" fill="white"/>
<path d="M10 6H11V7H10V6Z" fill="white"/>
<path d="M11 5H12V6H11V5Z" fill="white"/>
<path d="M12 4H13V5H12V4Z" fill="white"/>
<path d="M11 3H12V4H11V3Z" fill="white"/>
<path d="M12 2H13V3H12V2Z" fill="white"/>
<path d="M13 3H14V4H13V3Z" fill="white"/>
<path d="M14 2H15V3H14V2Z" fill="white"/>
<path d="M13 1H14V2H13V1Z" fill="white"/>
<path d="M9 5H10V6H9V5Z" fill="white"/>
<path d="M10 4H11V5H10V4Z" fill="white"/>
<path d="M7 8H8V9H7V8Z" fill="#E0E0E0"/>
<path d="M8 7H9V8H8V7Z" fill="#E0E0E0"/>
<path d="M9 6H10V7H9V6Z" fill="#E0E0E0"/>
<path d="M10 5H11V6H10V5Z" fill="#E0E0E0"/>
<path d="M12 4H11V5H12V4Z" fill="#E0E0E0"/>
<path d="M13 3H12V4H13V3Z" fill="#E0E0E0"/>
<path d="M14 2H13V3H14V2Z" fill="#E0E0E0"/>
<path d="M15 1H14V2H15V1Z" fill="#E0E0E0"/>
<path d="M6 11H7V12H6V11Z" fill="#87888A"/>
<path d="M3 7H4V8H3V7Z" fill="#565658"/>
<path d="M8 12H9V13H8V12Z" fill="#565658"/>
<path d="M7 11H8V12H7V11Z" fill="#565658"/>
<path d="M2 13H3V14H2V13Z" fill="#623B12"/>
<path d="M4 11H5V12H4V11Z" fill="#623B12"/>
<path d="M3 12H4V13H3V12Z" fill="#855024"/>
<path d="M4 12H5V13H4V12Z" fill="#361C05"/>
<path d="M3 11H4V12H3V11Z" fill="#3A2009"/>
<path d="M3 13H4V14H3V13Z" fill="#361C05"/>
<path d="M2 12H3V13H2V12Z" fill="#3A2009"/>
<path d="M2 14H3V15H2V14Z" fill="#2C2C2C"/>
<path d="M4 8H5V10H4V8Z" fill="#87888A"/>
</svg>
